<?xml version="1.0" encoding="UTF-8" standalone="no"?>
<!-- Created with Inkscape (http://www.inkscape.org/) -->
<svg
   xmlns:dc="http://purl.org/dc/elements/1.1/"
   xmlns:cc="http://web.resource.org/cc/"
   xmlns:rdf="http://www.w3.org/1999/02/22-rdf-syntax-ns#"
   xmlns:svg="http://www.w3.org/2000/svg"
   xmlns="http://www.w3.org/2000/svg"
   xmlns:xlink="http://www.w3.org/1999/xlink"
   xmlns:sodipodi="http://sodipodi.sourceforge.net/DTD/sodipodi-0.dtd"
   xmlns:inkscape="http://www.inkscape.org/namespaces/inkscape"
   width="400"
   height="256"
   id="svg2"
   sodipodi:version="0.32"
   inkscape:version="0.45.1"
   version="1.0"
   inkscape:output_extension="org.inkscape.output.svg.inkscape">
  <defs
     id="defs4">
    <linearGradient
       spreadMethod="pad"
       x2="1"
       y2="0"
       x1="0"
       y1="0"
       id="id1265"
       gradientUnits="userSpaceOnUse">
      <stop
         stop-color="#48ad39"
         offset="0"
         id="stop2647" />
      <stop
         stop-color="#338236"
         offset=".333651"
         id="stop2649" />
      <stop
         stop-color="#256331"
         offset=".621352"
         id="stop2651" />
      <stop
         stop-color="#1c4e2b"
         offset=".856626"
         id="stop2653" />
      <stop
         stop-color="#174428"
         offset="1"
         id="stop2655" />
    </linearGradient>
    <linearGradient
       inkscape:collect="always"
       xlink:href="#id1265"
       id="linearGradient8293"
       x1="-12380.229"
       y1="-9845.8945"
       x2="6052.9243"
       y2="-9845.8945"
       gradientUnits="userSpaceOnUse"
       gradientTransform="matrix(7.2405092e-3,0,0,7.2405092e-3,-27043.362,18252.895)" />
  </defs>
  <g
     inkscape:label="Layer 1"
     inkscape:groupmode="layer"
     id="layer1"
     transform="translate(27240.598,-18130.02)">
    <path
       style="fill:#ffffff;fill-rule:nonzero;stroke:none"
       d="M -27059.32,18130.768 L -27074.548,18133.272 C -27074.548,18133.272 -27072.819,18134.498 -27072.006,18135.078 C -27073.567,18135.453 -27075.155,18135.878 -27076.819,18136.588 L -27077.168,18136.73 L -27077.181,18136.756 L -27084.988,18141.221 C -27090.563,18144.951 -27095.906,18150.332 -27101.558,18156.036 C -27110.334,18164.889 -27120.27,18174.903 -27127.665,18174.374 L -27144.738,18173.509 L -27138.273,18183.962 C -27137.628,18184.917 -27122.245,18207.449 -27094.319,18212.108 C -27091.673,18212.56 -27088.382,18212.534 -27084.937,18212.018 C -27086.73,18214.237 -27088.86,18216.844 -27088.86,18216.844 L -27071.709,18213.528 C -27055.642,18210.405 -27044.041,18202.636 -27034.711,18196.39 C -27029.265,18192.738 -27024.554,18189.576 -27020.605,18188.505 C -27009.456,18185.459 -27004.539,18190.647 -27004.332,18190.866 L -26992.318,18203.952 L -26993.208,18186.259 C -26993.299,18184.62 -26995.815,18146.19 -27027.406,18134.407 C -27038.518,18130.265 -27048.958,18129.065 -27059.32,18130.768"
       id="path5671" />
    <path
       style="fill:#46aa32;fill-rule:nonzero;stroke:none"
       d="M -27000.422,18185.085 C -27000.1,18185.653 -26999.79,18186.195 -26999.532,18186.698 L -26999.545,18186.621 C -26999.545,18186.621 -27001.558,18150.822 -27029.613,18140.357 C -27040.557,18136.266 -27049.99,18135.672 -27058.288,18137.027 C -27054.52,18139.698 -27054.378,18144.099 -27054.378,18144.099 C -27054.378,18144.099 -27062.159,18137.259 -27074.342,18142.421 C -27076.884,18143.699 -27079.284,18145.131 -27081.607,18146.59 C -27095.738,18156.049 -27112.36,18181.833 -27128.117,18180.71 L -27133.008,18180.426 C -27132.504,18180.749 -27132.298,18180.659 -27133.008,18180.439 C -27133.008,18180.439 -27118.825,18201.59 -27093.273,18205.849 C -27086.859,18206.933 -27075.077,18204.726 -27070.29,18196.712 C -27069.541,18202.481 -27071.193,18205.165 -27072.922,18207.294 C -27048.429,18202.545 -27034.801,18185.795 -27022.27,18182.388 C -27006.655,18178.116 -26999.532,18186.698 -26999.532,18186.698 C -26999.79,18186.195 -27000.1,18185.653 -27000.422,18185.085"
       id="path5673" />
    <path
       style="fill:#ffffff;fill-rule:nonzero;stroke:none"
       d="M -26913.081,18195.577 C -26913.056,18191.254 -26914.643,18186.711 -26918.256,18182.814 C -26921.857,18178.916 -26927.496,18176.194 -26934.336,18175.664 C -26938.207,18175.355 -26942.479,18175.664 -26947.241,18176.697 C -26955.435,18165.637 -26963.914,18159.443 -26973.373,18158.436 C -26978.897,18157.894 -26984.639,18160.062 -26988.266,18164.076 C -26991.956,18168.051 -26993.763,18173.225 -26994.215,18178.736 C -26994.537,18182.84 -26994.137,18187.214 -26993.015,18191.796 C -26996.28,18192.66 -26999.467,18193.422 -27002.255,18194.054 C -27004.294,18194.519 -27006.475,18195.409 -27008.359,18197.216 C -27010.243,18198.984 -27011.482,18201.72 -27011.624,18204.133 C -27011.662,18204.597 -27011.662,18205.049 -27011.649,18205.488 C -27013.275,18205.152 -27014.927,18204.907 -27016.566,18204.791 C -27032.117,18203.591 -27045.718,18210.985 -27053.423,18222.161 C -27055.358,18220.896 -27057.668,18219.786 -27060.946,18219.412 C -27062.25,18219.296 -27063.76,18219.386 -27065.321,18219.851 C -27067.812,18220.548 -27070.354,18222.277 -27071.89,18224.497 C -27073.451,18226.704 -27074.058,18229.052 -27074.226,18231.104 C -27074.419,18233.995 -27073.916,18236.485 -27073.142,18238.77 C -27083.336,18222.135 -27099.597,18218.677 -27107.585,18218.031 C -27115.289,18217.399 -27123.548,18218.56 -27130.246,18221.232 C -27132.749,18222.225 -27135.047,18223.413 -27137.189,18224.742 C -27136.892,18224.368 -27136.595,18224.006 -27136.298,18223.619 C -27131.962,18217.941 -27129.33,18212.34 -27128.826,18206.52 C -27128.517,18202.804 -27129.226,18199.048 -27130.84,18195.886 C -27133.279,18191.086 -27137.369,18187.795 -27141.783,18185.679 C -27146.222,18183.536 -27151.165,18182.388 -27156.353,18181.962 C -27164.934,18181.278 -27174.265,18182.581 -27182.988,18186.001 C -27191.828,18189.511 -27204.488,18195.693 -27215.832,18204.791 C -27227.072,18213.863 -27237.499,18226.162 -27239.512,18242.331 C -27239.744,18244.267 -27239.938,18246.203 -27240.093,18248.139 C -27243.951,18297.165 -27225.201,18342.616 -27201.546,18367.793 C -27196.397,18373.213 -27191.686,18377.395 -27187.157,18380.44 C -27182.627,18383.46 -27178.239,18385.525 -27173.348,18385.951 L -27173.284,18385.963 C -27170.548,18386.183 -27167.644,18385.77 -27165.038,18384.531 C -27161.05,18382.686 -27158.288,18379.253 -27156.675,18375.704 C -27155.036,18372.104 -27154.236,18368.168 -27153.875,18363.78 C -27153.849,18363.431 -27153.823,18363.07 -27153.797,18362.722 C -27153.501,18357.921 -27153.41,18353.198 -27153.449,18348.552 C -27146.958,18357.986 -27137.111,18364.115 -27126.065,18365.019 C -27122.309,18365.328 -27118.438,18365.019 -27114.605,18364.115 C -27100.629,18360.838 -27087.505,18346.681 -27090.37,18329.414 C -27086.756,18331.143 -27082.885,18332.511 -27078.781,18333.44 C -27077.09,18333.827 -27075.439,18334.098 -27073.864,18334.215 C -27068.031,18334.692 -27063.231,18333.35 -27060.004,18330.356 C -27057.527,18328.046 -27056.171,18324.91 -27056.197,18321.606 C -27056.197,18321.335 -27056.223,18321.077 -27056.249,18320.819 C -27053.358,18322.458 -27050.158,18323.504 -27046.828,18323.775 L -27046.725,18323.787 C -27042.131,18324.162 -27037.459,18323.116 -27033.214,18320.923 C -27028.916,18318.729 -27025.354,18315.515 -27023.006,18311.631 C -27021.715,18309.54 -27020.786,18307.321 -27020.154,18305.024 C -27019.108,18307.656 -27017.624,18310.018 -27015.766,18312.018 C -27011.688,18316.419 -27006.126,18318.806 -27000.487,18319.258 C -26993.634,18319.813 -26986.536,18317.658 -26980.574,18313.025 C -26974.419,18308.134 -26969.941,18301.281 -26967.089,18293.306 C -26965.514,18294.493 -26963.63,18295.164 -26962.159,18295.28 L -26961.875,18295.293 C -26958.765,18295.474 -26956.778,18294.648 -26954.958,18293.796 C -26953.151,18292.906 -26951.577,18291.783 -26950.093,18290.441 C -26944.324,18285.111 -26939.769,18278.788 -26936.336,18271.884 C -26935.317,18273.626 -26934.155,18275.239 -26932.813,18276.633 C -26928.077,18281.627 -26921.934,18284.156 -26915.972,18284.647 C -26912.552,18284.918 -26909.145,18284.531 -26905.906,18283.369 C -26903.132,18282.363 -26900.254,18280.956 -26897.802,18278.414 C -26897.466,18278.052 -26897.118,18277.678 -26896.821,18277.278 C -26892.175,18282.182 -26885.542,18285.769 -26877.296,18287.654 C -26876.496,18287.847 -26875.683,18287.976 -26874.844,18288.041 L -26874.805,18288.041 C -26872.612,18288.234 -26869.695,18287.912 -26867.101,18285.924 C -26864.469,18283.924 -26863.384,18280.827 -26863.281,18278.749 C -26863.113,18275.316 -26864.017,18273.265 -26865.088,18271.264 C -26865.991,18269.612 -26866.159,18268.632 -26866.043,18266.709 C -26865.888,18264.334 -26864.714,18260.682 -26863.075,18256.062 C -26861.487,18251.416 -26859.59,18245.764 -26858.906,18239.028 C -26858.855,18238.615 -26858.829,18238.202 -26858.79,18237.802 C -26857.59,18223.864 -26861.358,18212.547 -26868.314,18205.049 C -26875.231,18197.525 -26884.51,18194.119 -26893.169,18193.422 C -26899.222,18192.931 -26905.093,18193.706 -26910.346,18195.564 L -26910.346,18195.577 C -26911.313,18195.912 -26912.243,18196.287 -26913.133,18196.674 C -26913.12,18196.287 -26913.094,18195.951 -26913.094,18195.693 L -26913.081,18195.577"
       id="path5675" />
    <path
       id="path5677"
       d="M -26921.198,18195.447 C -26921.108,18189.666 -26927.831,18178.981 -26950.66,18185.975 C -26973.076,18151.235 -26994.924,18167.934 -26982.665,18197.28 C -26988.652,18199.177 -26995.26,18200.79 -27000.461,18201.977 C -27005.21,18203.048 -27004.009,18207.436 -26999.944,18210.572 C -26992.434,18216.379 -26981.129,18220.199 -26973.76,18220.844 C -26958.197,18247.248 -26957.474,18268.012 -26962.042,18281.382 C -26965.049,18289.124 -26959.526,18288.079 -26955.577,18284.453 C -26937.975,18268.257 -26932.671,18240.215 -26938.091,18215.011 C -26924.76,18209.256 -26921.276,18200.39 -26921.198,18195.447 z M -26907.597,18203.203 C -26914.139,18205.539 -26918.437,18209.243 -26921.392,18212.792 C -26923.818,18215.682 -26921.482,18218.728 -26918.604,18218.121 C -26912.049,18216.741 -26901.647,18217.179 -26900.447,18230.136 C -26922.386,18230.084 -26931.406,18241.234 -26931.961,18256.023 C -26932.606,18273.239 -26917.701,18279.02 -26908.668,18275.742 C -26904.37,18274.181 -26902.06,18272.103 -26901.389,18267.806 C -26900.447,18261.779 -26905.261,18258.449 -26909.713,18256.72 C -26918.333,18253.365 -26916.075,18244.422 -26910.487,18241.815 C -26905.519,18239.505 -26898.795,18242.641 -26898.24,18250.113 C -26897.182,18264.347 -26893.698,18275.419 -26875.424,18279.743 C -26870.572,18280.904 -26870.934,18277.342 -26872.108,18275.342 C -26878.444,18264.489 -26868.572,18254.062 -26866.985,18238.227 C -26863.604,18204.133 -26891.749,18197.538 -26907.597,18203.203 z M -27145.319,18268.077 C -27148.725,18260.476 -27163.179,18263.65 -27178.02,18270.451 C -27181.143,18263.315 -27184.201,18253.094 -27184.201,18253.094 C -27184.201,18253.094 -27160.572,18241.957 -27142.738,18218.676 C -27123.458,18193.525 -27155.81,18184.001 -27179.994,18193.55 C -27196.474,18200.055 -27228.362,18217.321 -27231.446,18243.286 C -27237.202,18291.77 -27218.386,18338.176 -27195.635,18362.205 C -27174.626,18384.389 -27163.089,18381.859 -27161.889,18362.154 C -27160.469,18339.015 -27163.347,18317.064 -27167.541,18300.274 C -27154.029,18290.105 -27141.95,18275.574 -27145.319,18268.077 z M -27071.476,18293.009 C -27071.296,18284.853 -27071.528,18273.406 -27073.373,18262.153 C -27079.723,18223.451 -27112.05,18222.741 -27127.252,18228.781 C -27138.208,18233.13 -27144.377,18241.686 -27146.635,18246.616 C -27148.984,18251.726 -27147.525,18256.914 -27141.473,18253.829 C -27135.782,18250.926 -27128.813,18250.01 -27124.103,18255.146 C -27119.702,18259.946 -27119.457,18266.386 -27118.438,18272.49 C -27121.599,18273.174 -27128.349,18276.452 -27131.536,18278.633 C -27145.512,18288.157 -27158.52,18310.998 -27151.474,18334.098 C -27147.254,18347.958 -27134.014,18360.334 -27116.45,18356.217 C -27106.888,18353.972 -27095.97,18343.996 -27098.448,18330.42 C -27100.422,18319.503 -27110.165,18316.819 -27119.225,18316.754 C -27133.678,18316.651 -27135.42,18301.01 -27129.071,18294.403 C -27120.864,18285.834 -27110.578,18292.028 -27107.662,18299.732 C -27102.293,18313.902 -27090.137,18322.497 -27076.961,18325.529 C -27069.308,18327.284 -27064.301,18325.413 -27064.327,18321.593 C -27064.327,18318.006 -27071.889,18315.115 -27071.476,18293.009 z M -27050.816,18235.195 C -27053.784,18232.007 -27059.255,18226.548 -27062.985,18227.632 C -27066.921,18228.794 -27066.676,18233.53 -27064.947,18237.427 C -27059.333,18250.177 -27064.198,18271.006 -27062.662,18293.409 C -27061.398,18312.031 -27048.661,18319.774 -27036.917,18313.721 C -27022.67,18306.34 -27025.819,18288.363 -27034.517,18266.863 C -27041.911,18248.5 -27037.278,18232.046 -27026.683,18228.807 C -27010.307,18223.813 -27003.713,18242.757 -27006.384,18260.811 C -27009.313,18280.517 -27013.714,18282.724 -27013.869,18294.661 C -27014.101,18311.063 -26997.273,18315.734 -26985.568,18306.624 C -26968.985,18293.719 -26963.927,18255.301 -26988.42,18228.639 C -27014.488,18200.235 -27044.75,18214.663 -27050.816,18235.195"
       style="fill:#214295;fill-rule:nonzero;stroke:none" />
    <path
       id="path5679"
       d="M -26868.507,18267.599 C -26868.507,18259.895 -26862.261,18253.649 -26854.557,18253.649 C -26846.853,18253.649 -26840.607,18259.895 -26840.607,18267.599 C -26840.607,18275.303 -26846.853,18281.549 -26854.557,18281.549 C -26862.261,18281.549 -26868.507,18275.303 -26868.507,18267.599"
       style="fill:#ffffff;fill-rule:nonzero;stroke:none" />
    <path
       id="path5681"
       d="M -26855.602,18267.147 L -26854.312,18267.134 C -26852.854,18267.122 -26852.17,18266.709 -26852.183,18265.702 C -26852.196,18264.657 -26852.931,18264.231 -26854.428,18264.244 L -26855.641,18264.257 L -26855.602,18267.147 z M -26854.08,18262.992 C -26851.473,18262.966 -26850.17,18263.844 -26850.157,18265.457 C -26850.144,18266.799 -26850.866,18267.715 -26852.183,18268.038 L -26850.079,18272.18 L -26852.299,18272.206 L -26854.157,18268.373 L -26855.602,18268.386 L -26855.564,18272.232 L -26857.538,18272.258 L -26857.629,18263.031 L -26854.08,18262.992 z M -26859.164,18262.798 C -26860.519,18264.192 -26861.255,18265.986 -26861.229,18267.831 C -26861.216,18269.677 -26860.493,18271.406 -26859.151,18272.735 C -26857.796,18274.064 -26856.028,18274.787 -26854.247,18274.774 C -26852.312,18274.761 -26850.57,18274.026 -26849.189,18272.671 C -26847.885,18271.38 -26847.163,18269.638 -26847.188,18267.793 C -26847.214,18265.818 -26847.911,18264.115 -26849.253,18262.785 C -26850.634,18261.43 -26852.35,18260.721 -26854.286,18260.734 C -26856.196,18260.759 -26857.861,18261.456 -26859.164,18262.798 z M -26848.389,18261.921 C -26846.853,18263.457 -26846.001,18265.457 -26845.988,18267.664 C -26845.962,18269.948 -26846.788,18271.987 -26848.337,18273.522 C -26849.937,18275.123 -26852.002,18275.987 -26854.144,18276.013 C -26856.338,18276.026 -26858.416,18275.161 -26860.003,18273.587 C -26861.577,18272.025 -26862.442,18270.012 -26862.468,18267.844 C -26862.481,18265.65 -26861.616,18263.547 -26860.042,18261.934 C -26858.506,18260.372 -26856.557,18259.559 -26854.325,18259.533 C -26852.067,18259.508 -26850.002,18260.334 -26848.389,18261.921"
       style="fill:#214295;fill-rule:nonzero;stroke:none" />
    <path
       id="path2190"
       d="M -27043.796,18155.984 C -27064.34,18157.236 -27068.315,18170.102 -27090.976,18181.601 C -27111.237,18191.899 -27121.135,18186.208 -27126.891,18183.949 C -27127.007,18183.949 -27132.04,18180.917 -27133.008,18180.439 C -27133.008,18180.439 -27118.825,18201.59 -27093.273,18205.849 C -27086.859,18206.933 -27075.077,18204.726 -27070.29,18196.712 C -27069.541,18202.481 -27071.193,18205.165 -27072.922,18207.294 C -27048.429,18202.545 -27034.801,18185.782 -27022.27,18182.388 C -27006.655,18178.116 -26999.532,18186.698 -26999.532,18186.698 C -27004.126,18177.858 -27019.457,18157.056 -27040.144,18155.971 C -27041.344,18155.894 -27042.557,18155.907 -27043.796,18155.984"
       clip-rule="nonzero"
       style="fill:url(#linearGradient8293);fill-opacity:1" />
  </g>
</svg>
