<?xml version="1.0" encoding="iso-8859-1"?>
<!-- Uploaded to: SVG Repo, www.svgrepo.com, Generator: SVG Repo Mixer Tools -->
<svg fill="#ffcc00" height="800px" width="800px" version="1.1" id="Layer_1" xmlns="http://www.w3.org/2000/svg" xmlns:xlink="http://www.w3.org/1999/xlink" 
	 viewBox="0 0 512 512" xml:space="preserve">
<g>
	<g>
		<path d="M61.612,60.047c-0.086-0.53-0.259-1.146-0.526-1.677c-0.181-0.53-0.44-1.06-0.793-1.5c-0.354-0.44-0.707-0.97-1.06-1.323
			c-0.44-0.444-0.888-0.797-1.328-1.151c-0.526-0.263-1.06-0.526-1.586-0.793c-0.535-0.177-1.06-0.354-1.681-0.53
			c-1.06-0.177-2.293-0.177-3.44,0c-0.526,0.177-1.06,0.353-1.586,0.53c-0.535,0.267-1.06,0.53-1.595,0.793
			c-0.44,0.353-0.879,0.707-1.319,1.151c-0.353,0.354-0.793,0.884-1.06,1.323c-0.353,0.44-0.621,0.97-0.793,1.5
			c-0.267,0.53-0.44,1.147-0.534,1.677c-0.086,0.53-0.172,1.146-0.172,1.767c0,2.293,0.966,4.591,2.56,6.177
			c0.44,0.444,0.879,0.797,1.319,1.151c0.534,0.263,1.06,0.53,1.595,0.793c0.526,0.177,1.06,0.353,1.586,0.53
			c0.621,0.086,1.233,0.177,1.767,0.177c0.526,0,1.146-0.091,1.672-0.177c0.621-0.177,1.146-0.353,1.681-0.53
			c0.526-0.263,1.06-0.53,1.586-0.793c0.44-0.354,0.888-0.707,1.328-1.151c1.586-1.586,2.56-3.883,2.56-6.177
			C61.793,61.194,61.707,60.577,61.612,60.047z"/>
	</g>
</g>
<g>
	<g>
		<path d="M15.095,170.306c-0.888-0.797-1.853-1.5-2.914-1.944c-3.267-1.323-7.155-0.53-9.621,1.944
			C0.966,171.892,0,174.19,0,176.573c0,1.146,0.267,2.207,0.707,3.353c0.44,1.06,1.06,2.03,1.853,2.823
			c1.672,1.681,3.974,2.651,6.267,2.651c1.146,0,2.293-0.267,3.353-0.707c1.06-0.44,2.026-1.147,2.914-1.944
			c0.793-0.793,1.414-1.763,1.853-2.823c0.44-1.146,0.707-2.207,0.707-3.353C17.655,174.19,16.681,171.892,15.095,170.306z"/>
	</g>
</g>
<g>
	<g>
		<path d="M61.612,413.151c-0.086-0.53-0.259-1.146-0.526-1.677c-0.181-0.53-0.44-1.06-0.793-1.5
			c-0.354-0.531-0.707-0.97-1.06-1.323c-0.44-0.444-0.888-0.797-1.328-1.151c-0.526-0.264-1.06-0.526-1.586-0.793
			c-0.535-0.177-1.06-0.355-1.681-0.53c-1.06-0.177-2.293-0.177-3.44,0c-0.526,0.175-1.06,0.353-1.586,0.53
			c-0.535,0.267-1.06,0.529-1.595,0.793c-0.44,0.353-0.879,0.707-1.319,1.151c-0.353,0.354-0.793,0.792-1.06,1.323
			c-0.353,0.44-0.621,0.97-0.793,1.5c-0.267,0.53-0.44,1.147-0.534,1.677c-0.086,0.53-0.172,1.146-0.172,1.767
			c0,1.145,0.172,2.207,0.707,3.352c0.44,1.062,1.06,2.031,1.853,2.824c0.44,0.444,0.879,0.797,1.319,1.151
			c0.534,0.263,1.06,0.53,1.595,0.793c0.526,0.177,1.06,0.353,1.586,0.53c0.621,0.086,1.146,0.177,1.767,0.177
			c0.526,0,1.146-0.091,1.672-0.177c0.621-0.177,1.146-0.353,1.681-0.53c0.526-0.263,1.06-0.53,1.586-0.793
			c0.44-0.354,0.888-0.707,1.328-1.151c0.793-0.793,1.414-1.763,1.853-2.824c0.44-1.145,0.707-2.207,0.707-3.352
			C61.793,414.297,61.707,413.681,61.612,413.151z"/>
	</g>
</g>
<g>
	<g>
		<path d="M78.741,455.612c-0.44-1.06-1.06-2.031-1.853-2.823c-0.44-0.444-0.888-0.797-1.328-1.151
			c-0.526-0.264-1.06-0.526-1.586-0.793c-0.534-0.177-1.06-0.355-1.681-0.44c-1.672-0.354-3.44-0.177-5.026,0.44
			c-1.06,0.444-2.034,1.146-2.914,1.944c-1.681,1.586-2.56,3.884-2.56,6.177c0,0.619,0,1.236,0.172,1.767
			c0.095,0.53,0.267,1.146,0.44,1.675c0.267,0.531,0.534,1.062,0.888,1.501c0.267,0.444,0.707,0.97,1.06,1.323
			c0.879,0.884,1.767,1.504,2.914,1.944c1.06,0.44,2.207,0.707,3.354,0.707c0.526,0,1.146-0.091,1.672-0.177
			c0.621-0.177,1.146-0.353,1.681-0.53c0.526-0.263,1.06-0.53,1.586-0.793c0.44-0.354,0.888-0.707,1.328-1.151
			c0.354-0.353,0.707-0.793,1.06-1.323c0.353-0.44,0.612-0.97,0.793-1.501c0.267-0.529,0.44-1.145,0.526-1.675
			c0.095-0.531,0.181-1.148,0.181-1.767C79.448,457.819,79.181,456.672,78.741,455.612z"/>
	</g>
</g>
<g>
	<g>
		<path d="M158.189,473.267c-0.44-1.06-1.06-2.031-1.853-2.823c-0.44-0.444-0.888-0.797-1.414-1.151
			c-0.44-0.264-0.974-0.526-1.5-0.793c-0.534-0.177-1.06-0.355-1.681-0.53c-2.819-0.53-5.914,0.443-7.94,2.474
			c-0.793,0.792-1.414,1.763-1.948,2.823c-0.44,1.147-0.612,2.207-0.612,3.444c0,0.529,0,1.145,0.172,1.677
			c0.095,0.53,0.267,1.146,0.44,1.675c0.267,0.531,0.534,1.062,0.888,1.501c0.267,0.53,0.707,0.97,1.06,1.323
			c0.44,0.444,0.879,0.797,1.319,1.151c0.534,0.263,1.06,0.53,1.595,0.793c0.526,0.177,1.06,0.353,1.586,0.53
			c0.621,0.086,1.233,0.177,1.767,0.177c0.526,0,1.146-0.09,1.672-0.177c0.621-0.177,1.146-0.353,1.681-0.53
			c0.526-0.263,1.06-0.53,1.5-0.793c0.526-0.354,0.974-0.707,1.414-1.151c0.354-0.353,0.707-0.793,1.06-1.323
			c0.353-0.44,0.612-0.97,0.793-1.501c0.267-0.529,0.44-1.145,0.526-1.675c0.095-0.531,0.181-1.148,0.181-1.677
			C158.897,475.474,158.629,474.327,158.189,473.267z"/>
	</g>
</g>
<g>
	<g>
		<path d="M484.81,482.095c-0.44-1.06-1.06-2.031-1.853-2.823c-0.44-0.444-0.888-0.797-1.328-1.151
			c-0.526-0.264-1.06-0.526-1.586-0.793c-0.534-0.177-1.06-0.355-1.681-0.44c-2.819-0.621-5.914,0.352-7.94,2.383
			c-0.793,0.792-1.414,1.763-1.853,2.823c-0.44,1.06-0.707,2.207-0.707,3.444c0,2.293,0.966,4.591,2.56,6.177
			c1.672,1.681,3.974,2.651,6.267,2.651c0.526,0,1.146-0.091,1.672-0.177c0.621-0.177,1.146-0.353,1.681-0.53
			c0.526-0.263,1.06-0.53,1.586-0.793c0.44-0.354,0.888-0.707,1.328-1.151c1.586-1.586,2.56-3.883,2.56-6.177
			C485.517,484.302,485.25,483.241,484.81,482.095z"/>
	</g>
</g>
<g>
	<g>
		<path d="M440.672,446.784c-0.44-1.06-1.06-2.031-1.853-2.823c-2.474-2.474-6.448-3.267-9.621-1.944
			c-1.146,0.444-2.034,1.06-2.914,1.944c-0.793,0.792-1.414,1.763-1.853,2.823c-0.44,1.147-0.707,2.207-0.707,3.444
			c0,2.293,0.966,4.591,2.56,6.177c1.672,1.681,3.974,2.56,6.267,2.56c0.612,0,1.146,0,1.767-0.086
			c0.526-0.177,1.052-0.353,1.586-0.53c0.526-0.263,1.06-0.53,1.586-0.793c0.44-0.354,0.888-0.707,1.328-1.151
			c0.354-0.353,0.707-0.879,1.06-1.323c0.353-0.44,0.612-0.97,0.793-1.501c0.267-0.529,0.44-1.145,0.526-1.675
			c0.095-0.531,0.181-1.148,0.181-1.677C441.379,448.991,441.112,447.931,440.672,446.784z"/>
	</g>
</g>
<g>
	<g>
		<path d="M429.991,37.892c-3.267-3.267-9.181-3.358-12.534,0c-1.595,1.586-2.56,3.884-2.56,6.267c0,2.293,0.966,4.591,2.56,6.177
			c1.672,1.681,3.974,2.56,6.267,2.56c2.293,0,4.586-0.879,6.267-2.56c1.586-1.586,2.56-3.883,2.56-6.177
			C432.552,41.776,431.578,39.478,429.991,37.892z"/>
	</g>
</g>
<g>
	<g>
		<path d="M484.81,31.888c-0.44-1.06-1.06-2.03-1.853-2.823c-0.44-0.444-0.888-0.797-1.328-1.151
			c-0.526-0.263-1.06-0.526-1.586-0.793c-0.534-0.177-1.06-0.354-1.681-0.44c-2.819-0.621-5.914,0.353-7.94,2.383
			c-0.793,0.793-1.414,1.763-1.853,2.823c-0.44,1.06-0.707,2.207-0.707,3.444c0,2.293,0.966,4.591,2.56,6.177
			c1.672,1.681,3.974,2.56,6.267,2.56c0.526,0,1.146,0,1.672-0.086c0.621-0.177,1.146-0.353,1.681-0.53
			c0.526-0.263,1.06-0.53,1.586-0.793c0.44-0.354,0.888-0.707,1.328-1.151c0.354-0.353,0.707-0.879,1.06-1.323
			c0.353-0.44,0.612-0.97,0.793-1.5c0.267-0.53,0.44-1.146,0.526-1.677c0.095-0.53,0.181-1.147,0.181-1.677
			C485.517,34.095,485.25,32.948,484.81,31.888z"/>
	</g>
</g>
<g>
	<g>
		<path d="M482.957,90.858c-0.44-0.444-0.888-0.797-1.328-1.151c-0.526-0.263-1.06-0.526-1.586-0.793
			c-0.534-0.177-1.06-0.354-1.681-0.44c-2.819-0.621-5.914,0.353-7.94,2.383c-0.793,0.793-1.414,1.763-1.853,2.823
			c-0.44,1.06-0.707,2.207-0.707,3.444c0,2.293,0.966,4.591,2.56,6.177c1.672,1.681,3.974,2.651,6.267,2.651
			c0.526,0,1.146-0.091,1.672-0.177c0.621-0.177,1.146-0.353,1.681-0.53c0.526-0.263,1.06-0.53,1.586-0.793
			c0.44-0.354,0.888-0.707,1.328-1.151c0.354-0.353,0.707-0.793,1.06-1.323c0.353-0.44,0.612-0.97,0.793-1.5
			c0.267-0.53,0.44-1.146,0.526-1.677c0.095-0.53,0.181-1.147,0.181-1.677C485.517,94.741,484.543,92.444,482.957,90.858z"/>
	</g>
</g>
<g>
	<g>
		<path d="M509.44,126.168c-3.353-3.358-9.267-3.267-12.535,0c-1.595,1.586-2.56,3.884-2.56,6.177c0,1.237,0.267,2.384,0.707,3.444
			c0.44,1.06,1.06,2.03,1.853,2.823c1.672,1.681,3.974,2.56,6.267,2.56c2.293,0,4.586-0.879,6.267-2.56
			c0.793-0.793,1.414-1.763,1.853-2.823c0.44-1.06,0.707-2.207,0.707-3.444C512,130.052,511.026,127.754,509.44,126.168z"/>
	</g>
</g>
<g>
	<g>
		<path d="M485.517,238.323c0-121.69-99-220.69-220.69-220.69c-121.69,0-220.69,99-220.69,220.69c0,2.492,0.056,4.972,0.138,7.445
			c-0.071,0.453-0.138,0.908-0.138,1.383c0,0.718,0.108,1.406,0.271,2.074c5.703,116.645,102.384,209.788,220.418,209.788
			c118.034,0,214.715-93.142,220.418-209.788c0.162-0.668,0.272-1.357,0.272-2.074c0-0.474-0.069-0.93-0.14-1.383
			C485.459,243.295,485.517,240.816,485.517,238.323z M264.828,36.223c57.11,0,108.78,22.069,145.705,61.793H119.121
			C156.047,58.292,207.716,36.223,264.828,36.223z M104.024,115.453c0.614,0.136,1.25,0.219,1.907,0.219h317.793
			c0.655,0,1.289-0.083,1.905-0.219c4.418,5.725,8.543,11.253,12.341,17.874H91.683C95.48,126.706,99.603,121.178,104.024,115.453z
			 M82.008,150.982h365.638c5.444,11.034,9.875,22.069,13.194,35.31H68.815C72.134,173.051,76.562,162.016,82.008,150.982z
			 M64.873,203.947H464.78c0.515,2.207,0.966,4.414,1.353,8.828H63.519C63.907,208.361,64.358,206.154,64.873,203.947z
			 M86.56,336.361h81.349c0.231,2.207,0.694,4.414,1.373,8.828H91.683C89.905,340.775,88.194,338.568,86.56,336.361z
			 M264.828,442.292c-29.468,0-57.483-6.621-82.778-17.655h165.554C322.31,435.671,294.293,442.292,264.828,442.292z
			 M379.116,406.982H150.539c-17.795-13.241-33.558-28.69-46.683-44.138h72.696c0.078,0,0.147-0.488,0.224-0.49
			c10.209,15.923,28.05,26.273,48.328,26.273c20.276,0,38.116-10.233,48.325-26.155c0.075,0.002,0.149,0.373,0.226,0.373h152.142
			C412.672,378.292,396.909,393.74,379.116,406.982z M185.379,331.013c0-21.905,17.819-39.724,39.724-39.724
			c21.905,0,39.724,17.819,39.724,39.724c0,21.905-17.819,39.724-39.724,39.724C203.198,370.737,185.379,352.918,185.379,331.013z
			 M437.97,345.188H280.922c0.681-4.414,1.142-6.621,1.373-8.828h160.8C441.459,338.568,439.748,340.775,437.97,345.188z
			 M451.603,318.847c-0.459-0.073-0.918-0.141-1.396-0.141H280.922c-5.996-26.483-28.739-44.138-55.819-44.138
			c-27.082,0-49.823,17.655-55.821,44.138H79.448c-0.481,0-0.94,0.068-1.397,0.141c-8.256-19.301-13.595-42.072-15.483-61.934
			h404.515C465.198,276.775,459.858,299.546,451.603,318.847z M61.793,239.258c0-4.414,0.077-6.621,0.203-8.828h405.662
			c0.127,2.207,0.205,4.414,0.205,8.828H61.793z"/>
	</g>
</g>
</svg>